# xmcd CD database file
#
# Track frame offsets:
#	150
#	12165
#	24189
#	36505
#	47414
#	59975
#	71506
#	83378
#	95760
#	106526
#	118552
#	131897
#	146057
#	158365
#	170273
#	182572
#	195385
#	207118
#	218028
#	229750
#
# Disc length: 3220 seconds
#
# Revision: 0
# Processed by: cddbd v1.5.2PL0 Copyright (c) Steve Scherf et al.
# Submitted via: ACXtractor (MTCDDB.DLL V2003.12.21)
#
DISCID=050c9214
DTITLE=Gene Autry - Home on the Range
DYEAR=2007
DGENRE=Country
TTITLE0=Buttons and Bows
TTITLE1=Home on the Range
TTITLE2=Ole Faithful
TTITLE3=Red River Valley
TTITLE4=Have I Told you Lately that I Love You
TTITLE5=Don't Fence me In
TTITLE6=Same Old Fashion Girl
TTITLE7=Deep in the Heart of Texas
TTITLE8=I'm Thinking Tonight of my Blue Eyes
TTITLE9=I've got Spurs that Jingle Jangle Jingle
TTITLE10=A Year Ago Tonight
TTITLE11=Amapola
TTITLE12=I'll Never let you Go
TTITLE13=I'll Wait for You
TTITLE14=It Makes No Difference Now
TTITLE15=Lonely River
TTITLE16=There's a Goldmine in the Sky
TTITLE17=You are My Sunshine
TTITLE18=Blueberry Hill
TTITLE19=El Rancho Grande
EXTD=ID3G:   2 YEAR: 2007
EXTT0=
EXTT1=
EXTT2=
EXTT3=
EXTT4=
EXTT5=
EXTT6=
EXTT7=
EXTT8=
EXTT9=
EXTT10=
EXTT11=
EXTT12=
EXTT13=
EXTT14=
EXTT15=
EXTT16=
EXTT17=
EXTT18=
EXTT19=
PLAYORDER=
